<svg xmlns="http://www.w3.org/2000/svg" viewBox="0 0 20 20" class="home" style="width: 22px; height: 22px; display: block; fill: rgb(142, 139, 134); flex-shrink: 0;"><path d="M9.08 3.341a1.625 1.625 0 0 1 1.84 0l5.875 4.035c.441.304.705.805.705 1.34v6.034a2.125 2.125 0 0 1-2.125 2.125h-2.716a1.625 1.625 0 0 1-1.625-1.625v-4.065H8.967v4.065c0 .898-.728 1.625-1.625 1.625H4.625A2.125 2.125 0 0 1 2.5 14.75V8.716c0-.535.264-1.036.705-1.34zm1.132 1.03a.375.375 0 0 0-.424 0L3.913 8.407a.38.38 0 0 0-.163.309v6.034c0 .483.392.875.875.875h2.716a.375.375 0 0 0 .375-.375v-4.19c0-.621.503-1.125 1.125-1.125h2.319c.62 0 1.124.504 1.124 1.125v4.19c0 .207.168.375.375.375h2.716a.875.875 0 0 0 .875-.875V8.716c0-.124-.06-.24-.163-.31z"></path></svg>