<svg xmlns="http://www.w3.org/2000/svg" viewBox="0 0 20 20" class="gear" style="width: 22px; height: 22px; display: block; fill: rgb(142, 139, 134); flex-shrink: 0;"><path d="M7.29 10c0 1.5 1.22 2.71 2.71 2.71 1.5 0 2.71-1.21 2.71-2.71S11.5 7.29 10 7.29 7.29 8.5 7.29 10m1.25 0c0-.81.66-1.46 1.46-1.46.81 0 1.46.65 1.46 1.46s-.65 1.46-1.46 1.46-1.46-.65-1.46-1.46"></path><path d="M8.49 17.64q.75.15 1.53.15v-.01c.47 0 .94-.04 1.41-.13.26-.05.46-.25.5-.51l.26-1.53.15-.06 1.28.91c.21.14.49.14.71 0 .41-.28.8-.61 1.18-.98.33-.33.63-.7.9-1.09.15-.21.15-.5 0-.71l-.9-1.27.06-.15 1.55-.27c.26-.05.46-.25.51-.5a7.8 7.8 0 0 0 .02-2.94.62.62 0 0 0-.51-.5l-1.53-.26-.06-.15.91-1.28c.14-.21.14-.49 0-.71a7.9 7.9 0 0 0-2.07-2.08.62.62 0 0 0-.71 0l-1.27.9-.15-.06-.27-1.55a.64.64 0 0 0-.5-.51c-.5-.1-1-.15-1.53-.15-.47 0-.95.04-1.41.13-.26.05-.46.25-.5.51l-.26 1.53-.15.06-1.28-.91a.65.65 0 0 0-.71 0 7.9 7.9 0 0 0-2.08 2.07c-.15.21-.15.5 0 .71l.9 1.27-.06.15-1.55.27c-.26.05-.46.25-.51.5-.1.5-.15 1-.15 1.53 0 .47.04.95.13 1.41.05.26.25.46.51.5l1.53.26.06.15-.91 1.28c-.14.21-.15.49 0 .71.29.42.61.81.98 1.18.34.34.7.65 1.09.91.21.15.5.15.71 0l1.27-.9.15.06.27 1.55c.05.26.25.46.5.51m2.29-1.15c-.53.07-1.09.07-1.63 0l-.25-1.47a.62.62 0 0 0-.42-.49 6 6 0 0 1-.68-.28.63.63 0 0 0-.65.04l-1.2.85a6.8 6.8 0 0 1-1.14-1.16l.86-1.21c.13-.19.15-.43.05-.64-.11-.22-.21-.45-.28-.68a.62.62 0 0 0-.49-.43l-1.45-.25a6.7 6.7 0 0 1 0-1.63l1.47-.25c.23-.04.42-.2.49-.42.07-.23.17-.46.28-.68.11-.21.09-.46-.04-.65l-.85-1.2A6.8 6.8 0 0 1 6.01 4.8l1.21.86c.19.13.43.15.64.05.22-.11.45-.21.68-.28s.39-.26.43-.49l.25-1.45c.53-.07 1.09-.07 1.63 0l.25 1.47c.04.23.2.42.42.49.23.07.46.17.68.28.21.11.46.09.65-.04l1.2-.85A6.8 6.8 0 0 1 15.19 6l-.86 1.21c-.13.19-.15.43-.05.64.11.22.21.45.28.68s.26.39.49.43l1.45.25a6.7 6.7 0 0 1 0 1.63l-1.47.25c-.23.04-.42.2-.49.42-.07.23-.17.46-.28.68-.11.21-.09.46.04.65l.85 1.2a6.8 6.8 0 0 1-1.16 1.14l-1.21-.86a.64.64 0 0 0-.64-.05c-.22.11-.45.21-.68.28s-.39.26-.43.49z"></path></svg>