<svg xmlns="http://www.w3.org/2000/svg" viewBox="0 0 20 20" class="trash" style="width: 22px; height: 22px; display: block; fill: rgb(142, 139, 134); flex-shrink: 0;"><path d="M8.806 8.505a.55.55 0 0 0-1.1 0v5.979a.55.55 0 1 0 1.1 0zm3.488 0a.55.55 0 0 0-1.1 0v5.979a.55.55 0 1 0 1.1 0z"></path><path d="M6.386 3.925v1.464H3.523a.625.625 0 1 0 0 1.25h.897l.393 8.646A2.425 2.425 0 0 0 7.236 17.6h5.528a2.425 2.425 0 0 0 2.422-2.315l.393-8.646h.898a.625.625 0 1 0 0-1.25h-2.863V3.925c0-.842-.683-1.525-1.525-1.525H7.91c-.842 0-1.524.683-1.524 1.525M7.91 3.65h4.18c.15 0 .274.123.274.275v1.464H7.636V3.925c0-.152.123-.275.274-.275m-.9 2.99h7.318l-.39 8.588a1.175 1.175 0 0 1-1.174 1.122H7.236a1.175 1.175 0 0 1-1.174-1.122l-.39-8.589z"></path></svg>