<svg xmlns="http://www.w3.org/2000/svg"
     viewBox="0 0 322 387.5"
     fill="#ff0000ff"
     fill-rule="evenodd"
     clip-rule="evenodd">

  <!-- 전체 그룹을 좌우 반전 -->
  <g transform="translate(322,0) scale(-1,1)">
    <path d="M310 65l-86 0c27,20 45,52 45,88 0,21 -6,41 -16,58l31 30 26 0c7,0 12,-5 12,-13l0 -150c0,-7 -5,-13 -12,-13zm-289 -54l53 54 11 11 11 11 10 10 6 6 100 100 6 6 10 10 10 10 12 12 52 52 -17 17 -76 -76c-14,8 -30,13 -48,13 -51,0 -93,-42 -93,-94 0,-17 4,-34 13,-48l-10 -10c-11,17 -18,37 -18,58 0,37 18,69 46,88l-86 0c-7,0 -13,-5 -13,-13l0 -150c0,-7 6,-13 13,-13l28 0 -37 -37 17 -17zm178 212l-6 -6c-10,5 -20,7 -32,7 -39,0 -71,-32 -71,-71 0,-11 3,-22 8,-31l-6 -6c-6,11 -10,24 -10,37 0,44 36,79 79,79 14,0 27,-3 38,-9zm-38 -141c-10,0 -21,3 -30,7l94 94c5,-9 7,-19 7,-30 0,-39 -32,-71 -71,-71zm0 -22c-17,0 -33,4 -47,12l11 11c11,-6 23,-9 36,-9 44,0 79,36 79,79 0,13 -3,26 -8,36l10 11c8,-14 13,-30 13,-47 0,-51 -42,-93 -94,-93zm110 20l33 0 0 19 -33 0 0 -19zm-53 -19l0 -42c0,-11 -9,-19 -19,-19l-76 0c-10,0 -18,8 -18,19l0 42c16,-10 36,-16 56,-16 21,0 40,6 57,16zm-41 -46l-32 0c-16,0 -16,25 0,25l32 0c17,0 17,-25 0,-25z"/>
  </g>
</svg>
