<svg xmlns="http://www.w3.org/2000/svg" data-name="Layer 1" viewBox="0 0 512 640" x="0px" y="0px" fill="red"><defs><style>.cls-1{fill:none;}</style></defs><title>Untitled-1</title><path class="cls-1" d="M317.5,267.55V92.24a61.5,61.5,0,0,0-123,0V267.55A61.5,61.5,0,0,0,317.5,267.55Z"/><path d="M256,359.8a92.24,92.24,0,0,0,92.24-92.24V92.24A92.24,92.24,0,0,0,256,0h0a92.24,92.24,0,0,0-92.24,92.24V267.55A92.24,92.24,0,0,0,256,359.8h0Zm-61.5-92.24V92.24a61.5,61.5,0,0,1,123,0V267.55A61.5,61.5,0,0,1,194.5,267.55Z"/><path d="M402.1,167.62A15.37,15.37,0,0,0,386.72,183v81.32c0,72.15-58.64,130.85-130.73,130.85s-130.72-58.7-130.72-130.85V183a15.37,15.37,0,1,0-30.75,0v81.32c0,83.91,64.25,153.09,146.1,160.86v56.08h-61.5a15.37,15.37,0,1,0,0,30.75H332.87a15.37,15.37,0,1,0,0-30.75h-61.5V425.17c81.85-7.77,146.1-76.94,146.1-160.86V183A15.37,15.37,0,0,0,402.1,167.62Z"/><path d="M74.37,378.8A17.5,17.5,0,0,1,63.5,347.58L426.77,59.9A17.5,17.5,0,0,1,448.5,87.34L85.23,375A17.43,17.43,0,0,1,74.37,378.8Z"/></svg>