<svg xmlns="http://www.w3.org/2000/svg" fill="#fff" version="1.1" viewBox="-5.0 -10.0 110.0 135.0">
 <path d="m67.129 84.508h-17.746v-68.992h17.746v24.387h6.5195v-27.645c0-1.8008-1.4688-3.2578-3.2578-3.2578h-21.008v-1.6016c0-1.4727-0.67969-2.832-1.8125-3.7383-1.1328-0.90625-2.6055-1.2461-3.9648-1.0195l-37.254 7.5898c-2.2656 0.45312-3.8516 2.3789-3.8516 4.7578v70.098c0 2.2656 1.5859 4.3047 3.8516 4.7578l37.258 7.4727c0.33984 0.11328 0.67969 0.11328 0.90625 0.11328 1.1328 0 2.1523-0.33984 3.0586-1.1328 1.1328-0.90625 1.8125-2.2656 1.8125-3.7383v-1.5312h21.008c1.793 0 3.2578-1.4609 3.2578-3.2578v-27.988h-6.5195v24.73zm-32.242-29.434c-2.832 0-5.0977-2.2656-5.0977-5.0977 0-2.832 2.2656-5.0977 5.0977-5.0977s5.0977 2.2656 5.0977 5.0977c0 2.832-2.2656 5.0977-5.0977 5.0977z"/>
 <path d="m96.523 47.477-10.102-10.102c-1.3867-1.3867-3.5039-1.3867-4.8867 0-1.3867 1.3867-1.3867 3.5039 0 4.8867l4.1562 4.1562h-27.617c-1.875 0-3.4219 1.5469-3.4219 3.4219s1.5469 3.4219 3.4219 3.4219h27.617l-4.1562 4.1562c-1.3867 1.3867-1.3867 3.5039 0 4.8867 0.65234 0.65234 1.5469 0.97656 2.4453 0.97656 0.89453 0 1.793-0.32422 2.4453-0.97656l10.102-9.9375c1.3047-1.3867 1.3047-3.5039 0-4.8867z"/>
</svg>