<svg xmlns="http://www.w3.org/2000/svg" xmlns:xlink="http://www.w3.org/1999/xlink" xml:space="preserve" version="1.1" style="shape-rendering:geometricPrecision;text-rendering:geometricPrecision;image-rendering:optimizeQuality;" viewBox="0 0 302 288.75" x="0px" y="0px" fill="#000" fill-rule="evenodd" clip-rule="evenodd">
<g><path class="fil0" d="M12 61l80 0c-25,18 -42,48 -42,82 0,34 17,64 42,83l-80 0c-7,0 -12,-6 -12,-12l0 -141c0,-7 5,-12 12,-12zm139 16c36,0 66,30 66,66 0,37 -30,67 -66,67 -37,0 -67,-30 -67,-67 0,-36 30,-66 67,-66zm0 -21c48,0 87,39 87,87 0,49 -39,88 -87,88 -49,0 -88,-39 -88,-88 0,-48 39,-87 88,-87zm0 13c41,0 74,34 74,74 0,41 -33,74 -74,74 -41,0 -74,-33 -74,-74 0,-40 33,-74 74,-74zm-103 6l-31 0 0 18 31 0 0 -18zm50 -18l0 -40c0,-9 8,-17 17,-17l71 0c10,0 18,8 18,17l0 40c-16,-9 -34,-15 -53,-15 -20,0 -38,6 -53,15zm111 4l81 0c6,0 12,5 12,12l0 141c0,6 -6,12 -12,12l-81 0c26,-19 43,-49 43,-83 0,-34 -17,-64 -43,-82zm-73 -47l30 0c15,0 15,24 0,24l-30 0c-16,0 -16,-24 0,-24z"/></g></svg>